<svg viewBox="0 0 800 600" xmlns="http://www.w3.org/2000/svg">
  <defs>
    <style>
      .campus-bg { fill: #e8f5e8; stroke: #ccc; stroke-width: 2; }
      .building { fill: #a8c8f0; stroke: #2c5aa0; stroke-width: 1.5; opacity: 0.8; cursor: pointer; }
      .building:hover { fill: #7db8e8; opacity: 1; }
      .green-area { fill: #b8e6b8; stroke: #90c690; stroke-width: 1; }
      .road { fill: none; stroke: #888; stroke-width: 3; }
      .pathway { fill: none; stroke: #aaa; stroke-width: 2; }
      .text-label { font-family: Arial, sans-serif; font-size: 10px; fill: #333; text-anchor: middle; }
      .faculty-label { font-family: Arial, sans-serif; font-size: 9px; fill: #1a4480; font-weight: bold; text-anchor: middle; }
      .street-label { font-family: Arial, sans-serif; font-size: 8px; fill: #666; text-anchor: middle; }
      .title-text { font-family: Arial, sans-serif; font-size: 14px; fill: #1a4480; font-weight: bold; }
      .subtitle-text { font-family: Arial, sans-serif; font-size: 12px; fill: #333; }
      .tooltip { visibility: hidden; position: absolute; background: rgba(0,0,0,0.8); color: white; padding: 5px; border-radius: 3px; font-size: 12px; }
    </style>
  </defs>
  
  <!-- Campus boundary -->
  <polygon class="campus-bg" points="100,50 700,50 750,150 700,550 100,550 50,450 50,150"/>
  
  <!-- Streets -->
  <line class="road" x1="50" y1="100" x2="100" y2="100"/>
  <text class="street-label" x="25" y="95">Av. Ignacio Carrera Pinto</text>
  
  <line class="road" x1="50" y1="500" x2="100" y2="500"/>
  <text class="street-label" x="25" y="495">Av. Grecia</text>
  
  <line class="road" x1="350" y1="550" x2="400" y2="580"/>
  <text class="street-label" x="320" y="575">Las Palmeras</text>
  
  <line class="road" x1="600" y1="550" x2="650" y2="580"/>
  <text class="street-label" x="680" y="575">Las Encinas</text>
  
  <!-- North arrow -->
  <g transform="translate(720,80)">
    <polygon fill="#1a4480" points="0,-15 -8,10 0,5 8,10"/>
    <text class="text-label" y="25">N</text>
  </g>
  
  <!-- Title -->
  <text class="title-text" x="300" y="25">Campus Juan Gómez Millas</text>
  <text class="subtitle-text" x="300" y="40">UNIVERSIDAD DE CHILE</text>
  
  <!-- Green areas -->
  <ellipse class="green-area" cx="600" cy="150" rx="80" ry="40"/>
  <text class="text-label" x="600" y="155">Campo Deportivo</text>
  
  <rect class="green-area" x="250" y="280" width="60" height="40"/>
  <text class="text-label" x="280" y="305">Plaza Central</text>
  
  <!-- Buildings and Faculties -->
  
  <!-- Facultad de Filosofía y Humanidades -->
  <rect class="building" id="filosofia" x="120" y="200" width="80" height="60"/>
  <text class="faculty-label" x="160" y="225">Facultad de</text>
  <text class="faculty-label" x="160" y="235">Filosofía y</text>
  <text class="faculty-label" x="160" y="245">Humanidades</text>
  
  <!-- Programa Académico de Bachillerato -->
  <rect class="building" id="bachillerato" x="120" y="340" width="80" height="40"/>
  <text class="faculty-label" x="160" y="355">Programa</text>
  <text class="faculty-label" x="160" y="365">Académico de</text>
  <text class="faculty-label" x="160" y="375">Bachillerato</text>
  
  <!-- FCEI (ex ICEI) -->
  <rect class="building" id="fcei" x="220" y="160" width="90" height="50"/>
  <text class="faculty-label" x="265" y="180">Facultad de</text>
  <text class="faculty-label" x="265" y="190">Comunicación</text>
  <text class="faculty-label" x="265" y="200">e Imagen (FCEI)</text>
  
  <!-- Facultad de Ciencias Sociales -->
  <rect class="building" id="facso" x="420" y="120" width="80" height="60"/>
  <text class="faculty-label" x="460" y="145">Facultad de</text>
  <text class="faculty-label" x="460" y="155">Ciencias</text>
  <text class="faculty-label" x="460" y="165">Sociales</text>
  
  <!-- Aulario A -->
  <rect class="building" id="aulario-a" x="220" y="250" width="70" height="40"/>
  <text class="faculty-label" x="255" y="275">Aulario A</text>
  
  <!-- Aulario B -->
  <rect class="building" id="aulario-b" x="220" y="210" width="70" height="30"/>
  <text class="faculty-label" x="255" y="230">Aulario B</text>
  
  <!-- Facultad de Ciencias -->
  <rect class="building" id="ciencias" x="400" y="280" width="90" height="60"/>
  <text class="faculty-label" x="445" y="305">Facultad de</text>
  <text class="faculty-label" x="445" y="315">Ciencias</text>
  
  <!-- Facultad de Artes -->
  <rect class="building" id="artes" x="550" y="350" width="80" height="60"/>
  <text class="faculty-label" x="590" y="375">Facultad de</text>
  <text class="faculty-label" x="590" y="385">Artes</text>
  
  <!-- Additional buildings -->
  <rect class="building" x="350" y="180" width="40" height="30"/>
  <rect class="building" x="350" y="220" width="40" height="30"/>
  <rect class="building" x="350" y="260" width="40" height="30"/>
  <rect class="building" x="520" y="200" width="30" height="40"/>
  <rect class="building" x="560" y="200" width="30" height="40"/>
  <rect class="building" x="520" y="250" width="30" height="30"/>
  <rect class="building" x="560" y="250" width="30" height="30"/>
  <rect class="building" x="520" y="290" width="30" height="30"/>
  <rect class="building" x="600" y="200" width="40" height="30"/>
  <rect class="building" x="600" y="240" width="40" height="30"/>
  <rect class="building" x="600" y="280" width="40" height="30"/>
  <rect class="building" x="650" y="200" width="30" height="80"/>
  
  <!-- Pathways -->
  <path class="pathway" d="M 160 100 L 160 400 L 590 400 L 590 200"/>
  <path class="pathway" d="M 200 100 L 600 100 L 600 350"/>
  <path class="pathway" d="M 300 150 L 300 400"/>
  <path class="pathway" d="M 400 150 L 400 350"/>
  <path class="pathway" d="M 500 150 L 500 320"/>
  
  <!-- Interactive elements -->
  <script>
    <![CDATA[
    function showTooltip(evt, text) {
      let tooltip = document.getElementById('tooltip');
      if (!tooltip) {
        tooltip = document.createElementNS('http://www.w3.org/2000/svg', 'text');
        tooltip.setAttribute('id', 'tooltip');
        tooltip.setAttribute('class', 'tooltip');
        tooltip.setAttribute('x', '10');
        tooltip.setAttribute('y', '30');
        evt.target.parentNode.appendChild(tooltip);
      }
      tooltip.textContent = text;
      tooltip.setAttribute('visibility', 'visible');
    }
    
    function hideTooltip() {
      const tooltip = document.getElementById('tooltip');
      if (tooltip) {
        tooltip.setAttribute('visibility', 'hidden');
      }
    }
    
    document.getElementById('filosofia').addEventListener('mouseover', function(e) {
      showTooltip(e, 'Facultad de Filosofía y Humanidades');
    });
    
    document.getElementById('bachillerato').addEventListener('mouseover', function(e) {
      showTooltip(e, 'Programa Académico de Bachillerato');
    });
    
    document.getElementById('fcei').addEventListener('mouseover', function(e) {
      showTooltip(e, 'Facultad de Comunicación e Imagen (FCEI)');
    });
    
    document.getElementById('facso').addEventListener('mouseover', function(e) {
      showTooltip(e, 'Facultad de Ciencias Sociales (FACSO)');
    });
    
    document.getElementById('ciencias').addEventListener('mouseover', function(e) {
      showTooltip(e, 'Facultad de Ciencias');
    });
    
    document.getElementById('artes').addEventListener('mouseover', function(e) {
      showTooltip(e, 'Facultad de Artes');
    });
    
    // Hide tooltip on mouseout
    document.querySelectorAll('.building').forEach(function(building) {
      building.addEventListener('mouseout', hideTooltip);
    });
    ]]>
  </script>
</svg>